#!OML:ASF X:\für Bonn\!DataBase\2005_08_10_Bjorn_Final\c3d\bjorn.ASF
:FULLY-SPECIFIED
:DEGREES
48
root 3.26131 18.2212 1.89829 -168.326 -52.9811 173.183
lowerback 18.9645 -3.31422 4.47108
upperback 18.1027 -6.627 -3.06781
thorax 8.70439 -3.73848 -5.24426
lowerneck -10.0636 -10.4278 -9.73216
upperneck -12.685 -13.0837 22.7116
head 0.309304 -7.16063 7.92798
rclavicle -5.1684e-015 -7.15625e-014
rhumerus -37.1515 -38.3406 -64.1027
rradius 15.7601
rwrist 37.6646
rhand -14.2789 19.7024
rfingers 7.12502
rthumb 11.8602 -9.94175
lclavicle -5.1684e-015 -7.15625e-014
lhumerus 9.63978 -14.6889 79.8979
lradius 55.9832
lwrist -4.91504
lhand -35.7508 -16.3408
lfingers 7.12502
lthumb -8.86933 13.4528
rfemur -35.3802 -13.1897 14.7977
rtibia 54.0668
rfoot -23.0783 2.38542
rtoes -19.6924
lfemur -22.4627 -11.8663 -9.33577
ltibia 88.5752
lfoot -0.735906 -4.66602
ltoes -27.8619
49
root 3.26383 18.2241 1.83274 -170.208 -51.8909 174.245
lowerback 19.1312 -2.78782 4.19305
upperback 18.3728 -6.07991 -3.20234
thorax 9.02248 -3.51384 -5.33533
lowerneck -10.572 -10.501 -9.71598
upperneck -12.0651 -13.2316 22.6479
head 0.584616 -7.16496 7.83735
rclavicle 1.23246e-014 -4.57205e-014
rhumerus -36.9074 -40.1478 -62.6864
rradius 15.4564
rwrist 37.8158
rhand -14.613 19.9847
rfingers 7.12502
rthumb 11.538 -9.6777
lclavicle 1.23246e-014 -4.57205e-014
lhumerus 9.36626 -12.0829 80.0156
lradius 53.1128
lwrist -3.43506
lhand -36.5138 -15.0603
lfingers 7.12502
lthumb -9.60553 14.7007
rfemur -34.1097 -12.8871 15.4186
rtibia 53.7315
rfoot -22.9751 3.22056
rtoes -19.2822
lfemur -23.4341 -10.9999 -9.42851
ltibia 93.9287
lfoot -1.5153 -4.91901
ltoes -29.9695
50
root 3.26545 18.235 1.77445 -172.04 -50.6059 175.13
lowerback 19.4289 -2.18416 3.91821
upperback 18.5905 -5.42053 -3.44086
thorax 9.21322 -3.23148 -5.54016
lowerneck -11.029 -10.6181 -9.51761
upperneck -11.3145 -13.4678 22.5157
head 0.882762 -7.20835 7.68514
rclavicle 8.42847e-014 1.06151e-013
rhumerus -36.4981 -40.9902 -62.0792
rradius 15.5098
rwrist 36.7845
rhand -14.9083 20.0194
rfingers 7.12502
rthumb 11.2532 -9.65874
lclavicle 8.42847e-014 1.06151e-013
lhumerus 9.08445 -9.77584 79.8081
lradius 50.1053
lwrist -2.73252
lhand -37.0038 -14.3691
lfingers 7.12502
lthumb -10.0783 15.3695
rfemur -32.6583 -12.5041 15.8935
rtibia 53.2482
rfoot -22.783 4.14858
rtoes -18.766
lfemur -24.3453 -9.83036 -9.63251
ltibia 99.1112
lfoot -2.38429 -5.05048
ltoes -31.9561
51
root 3.26758 18.2553 1.71683 -173.811 -49.1474 175.863
lowerback 19.8293 -1.50103 3.57154
upperback 18.7289 -4.65344 -3.7234
thorax 9.26868 -2.90385 -5.75405
lowerneck -11.5113 -10.7739 -9.20018
upperneck -10.3145 -13.7876 22.2511
head 1.24684 -7.27086 7.4549
rclavicle 9.06458e-014 -5.20816e-014
rhumerus -35.8773 -40.7873 -62.1966
rradius 15.8851
rwrist 34.6162
rhand -15.096 19.8835
rfingers 7.12502
rthumb 11.0721 -9.8044
lclavicle 9.06458e-014 -5.20816e-014
lhumerus 8.617 -8.14049 79.187
lradius 47.1104
lwrist -2.24528
lhand -37.8565 -13.2348
lfingers 7.12502
lthumb -10.9008 16.4623
rfemur -31.0615 -12.01 16.2825
rtibia 52.6146
rfoot -22.4729 5.06986
rtoes -18.1371
lfemur -25.2845 -8.33091 -9.80532
ltibia 104.126
lfoot -3.10296 -5.47789
ltoes -33.208
52
root 3.2655 18.2865 1.65885 -175.545 -47.5473 176.464
lowerback 20.2991 -0.758358 3.20264
upperback 18.8257 -3.81448 -4.04117
thorax 9.24904 -2.54391 -6.00146
lowerneck -11.8015 -10.9308 -8.90642
upperneck -9.42843 -14.1049 22.063
head 1.55615 -7.34911 7.26783
rclavicle -6.75868e-014 -1.19271e-014
rhumerus -35.1102 -39.828 -62.8002
rradius 16.5276
rwrist 31.9167
rhand -15.1788 19.6262
rfingers 7.12502
rthumb 10.9923 -10.066
lclavicle -6.75868e-014 -1.19271e-014
lhumerus 7.88835 -7.3079 78.1806
lradius 44.3996
lwrist -2.17416
lhand -39.0973 -11.2115
lfingers 7.12502
lthumb -12.0975 18.4187
rfemur -29.2767 -11.494 16.5906
rtibia 51.8008
rfoot -22.0586 6.0849
rtoes -17.5181
lfemur -26.2332 -6.55398 -9.91555
ltibia 108.951
lfoot -3.84593 -6.26427
ltoes -34.4786
53
root 3.26514 18.3256 1.60066 -177.234 -45.9798 176.956
lowerback 20.8395 -0.0188504 2.81838
upperback 18.8769 -2.98369 -4.35914
thorax 9.14119 -2.19188 -6.23884
lowerneck -11.8847 -11.0515 -8.63157
upperneck -8.68935 -14.3664 21.9262
head 1.78802 -7.4198 7.12274
rclavicle 5.64548e-014 2.14687e-014
rhumerus -34.3339 -38.4677 -63.5845
rradius 17.3434
rwrist 29.2167
rhand -15.1439 19.2787
rfingers 7.12502
rthumb 11.026 -10.4117
lclavicle 5.64548e-014 2.14687e-014
lhumerus 6.97651 -7.26164 76.8756
lradius 41.9843
lwrist -2.40056
lhand -40.3522 -8.28898
lfingers 7.12502
lthumb -13.3073 21.2661
rfemur -27.3383 -11.0497 16.8504
rtibia 50.8166
rfoot -21.541 7.09169
rtoes -16.8728
lfemur -27.3168 -4.71387 -9.90163
ltibia 113.503
lfoot -4.51711 -7.29391
ltoes -35.123
54
root 3.26717 18.3751 1.5424 -178.904 -44.501 177.356
lowerback 21.4558 0.699121 2.45736
upperback 18.9001 -2.18652 -4.68315
thorax 8.96185 -1.85578 -6.49583
lowerneck -11.9357 -11.1758 -8.34105
upperneck -7.9042 -14.6432 21.8014
head 2.03014 -7.496 6.97817
rclavicle 9.46215e-014 4.85035e-014
rhumerus -33.5318 -36.6377 -64.6168
rradius 18.3313
rwrist 26.3815
rhand -15.093 18.8535
rfingers 7.12502
rthumb 11.0751 -10.8343
lclavicle 9.46215e-014 4.85035e-014
lhumerus 6.04464 -7.75697 75.4237
lradius 39.723
lwrist -2.95164
lhand -40.9909 -5.97044
lfingers 7.12502
lthumb -13.9229 23.5434
rfemur -25.2045 -10.5814 17.068
rtibia 49.658
rfoot -20.9621 7.96917
rtoes -16.1747
lfemur -28.5347 -3.03758 -9.82105
ltibia 117.737
lfoot -5.15107 -8.53947
ltoes -34.1376
55
root 3.26892 18.4334 1.48365 -180.567 -43.0372 177.679
lowerback 22.1282 1.43151 2.09369
upperback 18.9028 -1.38561 -4.99364
thorax 8.73697 -1.52128 -6.74573
lowerneck -11.9966 -11.3097 -8.08245
upperneck -7.04118 -14.9445 21.7364
head 2.30868 -7.57672 6.8517
rclavicle -1.03368e-014 2.62396e-014
rhumerus -32.7517 -34.2958 -65.8194
rradius 19.5066
rwrist 23.392
rhand -15.0721 18.4519
rfingers 7.12502
rthumb 11.0952 -11.2348
lclavicle -1.03368e-014 2.62396e-014
lhumerus 5.2685 -8.23806 74.036
lradius 37.2472
lwrist -4.22071
lhand -41.0667 -7.1524
lfingers 7.12502
lthumb -13.9959 22.3564
rfemur -22.9053 -9.93904 17.2551
rtibia 48.3656
rfoot -20.3706 8.63782
rtoes -15.5072
lfemur -29.8894 -1.18674 -9.4997
ltibia 121.703
lfoot -5.77233 -10.1668
ltoes -31.6061
56
root 3.27127 18.4915 1.42754 -182.212 -41.5808 177.967
lowerback 22.8012 2.16703 1.74706
upperback 18.8994 -0.594799 -5.2803
thorax 8.51057 -1.19255 -6.99041
lowerneck -12.049 -11.4439 -7.84283
upperneck -6.19112 -15.2518 21.7094
head 2.58839 -7.6617 6.74055
rclavicle -5.1684e-014 3.65764e-014
rhumerus -32.0324 -31.8733 -66.9396
rradius 20.7507
rwrist 20.9238
rhand -15.0831 18.1193
rfingers 7.12502
rthumb 11.0846 -11.568
lclavicle -5.1684e-014 3.65764e-014
lhumerus 4.63214 -8.59126 72.7839
lradius 34.8242
lwrist -6.17101
lhand -40.7871 -8.59534
lfingers 7.12502
lthumb -13.7265 20.9319
rfemur -20.56 -9.27311 17.4469
rtibia 47.0058
rfoot -19.7127 9.24339
rtoes -14.8117
lfemur -31.4141 0.93825 -8.84981
ltibia 125.409
lfoot -6.1833 -12.0784
ltoes -27.6306
57
root 3.27453 18.5462 1.37188 -183.874 -40.1138 178.208
lowerback 23.4488 2.93813 1.41124
upperback 18.968 0.204714 -5.56276
thorax 8.39667 -0.864044 -7.25935
lowerneck -12.3501 -11.576 -7.68819
upperneck -5.256 -15.5723 21.8026
head 2.95517 -7.73472 6.66227
rclavicle -8.0309e-014 -1.08139e-013
rhumerus -31.3015 -29.5941 -67.9943
rradius 22.0406
rwrist 19.1484
rhand -15.1258 17.892
rfingers 7.12502
rthumb 11.0434 -11.7975
lclavicle -8.0309e-014 -1.08139e-013
lhumerus 4.19302 -9.16471 71.4692
lradius 32.8562
lwrist -7.88046
lhand -39.8142 -9.40808
lfingers 7.12502
lthumb -12.7887 20.1802
rfemur -18.1546 -8.70351 17.6218
rtibia 45.6433
rfoot -18.9909 9.93434
rtoes -14.0483
lfemur -33.0097 3.47004 -7.8573
ltibia 128.812
lfoot -6.93197 -14.5118
ltoes -24.9499
